<?xml version="1.0" encoding="UTF-8"?>
<svg width="10px" height="18px" viewBox="0 0 10 18" version="1.1" xmlns="http://www.w3.org/2000/svg" xmlns:xlink="http://www.w3.org/1999/xlink">
    <!-- Generator: Sketch 39.1 (31720) - http://www.bohemiancoding.com/sketch -->
    <title>左翻页</title>
    <desc>Created with Sketch.</desc>
    <defs></defs>
    <g id="设计管理" stroke="none" stroke-width="1" fill="none" fill-rule="evenodd">
        <g id="设计管理-我的设计--列表视图" transform="translate(-1049.000000, -687.000000)" fill="#07AEFC">
            <g id="Group-12" transform="translate(924.000000, 680.000000)">
                <g id="左翻页" transform="translate(121.000000, 7.000000)">
                    <g id="Page-1-Copy" transform="translate(4.000000, 0.000000)">
                        <path d="M8.665025,17.087175 C8.467025,17.087175 8.269775,17.012175 8.119025,16.861425 L0.788525,9.547425 C0.643025,9.402675 0.561275,9.205425 0.561275,9.000675 C0.561275,8.795175 0.643025,8.597925 0.787775,8.453175 L8.101775,1.139175 C8.404025,0.836925 8.893775,0.836925 9.195275,1.139175 C9.497525,1.441425 9.497525,1.931175 9.195275,2.233425 L2.429525,8.999175 L9.211025,15.766425 C9.514025,16.067925 9.514025,16.557675 9.212525,16.859925 C9.061775,17.011425 8.863025,17.087175 8.665025,17.087175" id="Fill-2"></path>
                    </g>
                </g>
            </g>
        </g>
    </g>
</svg>