<?xml version="1.0" encoding="UTF-8"?>
<svg width="48px" height="16px" viewBox="0 0 48 16" version="1.1" xmlns="http://www.w3.org/2000/svg" xmlns:xlink="http://www.w3.org/1999/xlink">
    <!-- Generator: Sketch 43.1 (39012) - http://www.bohemiancoding.com/sketch -->
    <title>操作提示16px</title>
    <desc>Created with Sketch.</desc>
    <defs></defs>
    <g id="Symbols" stroke="none" stroke-width="1" fill="none" fill-rule="evenodd">
        <g id="操作提示16px">
            <g id="小成功面" fill="#07AEFC">
                <g id="Page-1">
                    <path d="M12.3795,6.1903 L7.2485,11.3213 C7.1265,11.4433 6.9665,11.5043 6.8065,11.5043 C6.6465,11.5043 6.4865,11.4433 6.3645,11.3213 L3.6655,8.6223 C3.4215,8.3783 3.4215,7.9823 3.6655,7.7383 C3.9095,7.4943 4.3055,7.4943 4.5495,7.7383 L6.8065,9.9953 L11.4955,5.3063 C11.7395,5.0623 12.1355,5.0623 12.3795,5.3063 C12.6235,5.5503 12.6235,5.9463 12.3795,6.1903 M8.0005,0.8053 C4.0485,0.8053 0.8455,4.0083 0.8455,7.9593 C0.8455,11.9113 4.0485,15.1143 8.0005,15.1143 C11.9515,15.1143 15.1545,11.9113 15.1545,7.9593 C15.1545,4.0083 11.9515,0.8053 8.0005,0.8053" id="Fill-2"></path>
                </g>
            </g>
            <g id="小失败面" transform="translate(16.000000, 0.000000)" fill="#FF3D67">
                <g id="Page-1">
                    <path d="M11.3368335,10.4437 C11.5808505,10.6877 11.5808505,11.0837 11.3368335,11.3277 C11.214825,11.4497 11.0548138,11.5107 10.8948026,11.5107 C10.7347914,11.5107 10.5747802,11.4497 10.4527717,11.3277 L8.00160031,8.8757 L5.54942888,11.3277 C5.42742035,11.4497 5.26740917,11.5107 5.10739798,11.5107 C4.94738679,11.5107 4.78737561,11.4497 4.66536708,11.3277 C4.42135002,11.0837 4.42135002,10.6877 4.66536708,10.4437 L7.11753851,7.9927 L4.66536708,5.5407 C4.42135002,5.2967 4.42135002,4.9007 4.66536708,4.6567 C4.90938414,4.4127 5.30541182,4.4127 5.54942888,4.6567 L8.00160031,7.1087 L10.4527717,4.6567 C10.6967887,4.4127 11.0928164,4.4127 11.3368335,4.6567 C11.5808505,4.9007 11.5808505,5.2967 11.3368335,5.5407 L8.88566212,7.9927 L11.3368335,10.4437 Z M8.00060024,0.8057 C4.04932401,0.8057 0.8451,4.0087 0.8451,7.9597 C0.8451,11.9107 4.04932401,15.1137 8.00060024,15.1137 C11.9518765,15.1137 15.1551004,11.9107 15.1551004,7.9597 C15.1551004,4.0087 11.9518765,0.8057 8.00060024,0.8057 L8.00060024,0.8057 Z" id="Fill-2"></path>
                </g>
            </g>
            <g id="提醒" transform="translate(32.000000, 0.000000)">
                <circle id="Oval-3" fill="#F6A623" cx="8" cy="8" r="7"></circle>
                <circle id="Oval-5" fill="#FFFFFF" cx="8" cy="4" r="1"></circle>
                <rect id="Rectangle" fill="#FFFFFF" x="7" y="7" width="2" height="6" rx="1"></rect>
            </g>
        </g>
    </g>
</svg>