<?xml version="1.0" encoding="UTF-8"?>
<svg width="264px" height="24px" viewBox="0 0 264 24" version="1.1" xmlns="http://www.w3.org/2000/svg" xmlns:xlink="http://www.w3.org/1999/xlink">
    <!-- Generator: Sketch 55.2 (78181) - https://sketchapp.com -->
    <title> </title>
    <desc>Created with Sketch.</desc>
    <defs>
        <polygon id="path-1" points="0 0.019135394 17.1028068 0.019135394 17.1028068 16.4311276 0 16.4311276"></polygon>
        <polygon id="path-3" points="0.0395858874 0.115728261 12.0065196 0.115728261 12.0065196 9.20168261 0.0395858874 9.20168261"></polygon>
        <polygon id="path-5" points="0 0.0614863082 16.3475299 0.0614863082 16.3475299 8.52124 0 8.52124"></polygon>
        <linearGradient x1="100%" y1="100%" x2="0%" y2="0%" id="linearGradient-7">
            <stop stop-color="#3375F8" offset="0%"></stop>
            <stop stop-color="#249DF8" offset="100%"></stop>
        </linearGradient>
        <polygon id="path-8" points="0 0.00215620687 15.5628486 0.00215620687 15.5628486 12.5 0 12.5"></polygon>
        <polygon id="path-10" points="0.0696923503 0.0354 6.1993958 0.0354 6.1993958 7.43046254 0.0696923503 7.43046254"></polygon>
    </defs>
    <g id="-" stroke="none" stroke-width="1" fill="none" fill-rule="evenodd">
        <g id="编组-3">
            <g id="企业微信">
                <rect id="矩形" fill="#D8D8D8" opacity="0" x="0" y="0" width="24" height="24"></rect>
                <g transform="translate(1.000000, 3.000000)" id="分组">
                    <g transform="translate(0.500000, 0.000000)">
                        <g>
                            <mask id="mask-2" fill="white">
                                <use xlink:href="#path-1"></use>
                            </mask>
                            <g id="Clip-2"></g>
                            <path d="M10.9041163,13.8133749 C10.868638,13.8239462 10.8331598,13.8344747 10.7974344,13.8445967 C10.0897221,14.0448528 9.33495946,14.1530484 8.55141059,14.1530484 C7.5940326,14.1530484 6.67960741,13.9915467 5.8415336,13.697882 C5.50456208,13.9198586 3.54419706,15.1471602 3.54419706,15.1471602 C3.54419706,15.1471602 3.91619385,13.1957438 4.01200372,12.7670056 C2.32053641,11.5901639 1.23545311,9.77039694 1.23545311,7.72807561 C1.23545311,4.17963913 4.51092336,1.30310279 8.55141059,1.30310279 C12.5533309,1.30310279 15.8046685,4.12502772 15.8663591,7.62668499 C16.2732782,7.64115102 16.6876924,7.70305965 17.1018184,7.81574918 C17.102189,7.78651753 17.1028068,7.75732867 17.1028068,7.72807561 C17.1028068,6.65936535 16.8654339,5.62459463 16.3972154,4.65248152 C15.9533972,3.73093533 15.3224688,2.90722745 14.5219735,2.2042125 C13.736695,1.51455082 12.8259144,0.974471332 11.8149175,0.598932269 C10.7791702,0.21419144 9.68115574,0.019135394 8.55141059,0.019135394 C7.42166544,0.019135394 6.323651,0.21419144 5.2879037,0.598932269 C4.27690678,0.974471332 3.3661056,1.51455082 2.58082709,2.2042125 C1.78035243,2.90722745 1.14942396,3.73093533 0.705585212,4.65248152 C0.237387325,5.62459463 -6.17729643e-06,6.65936535 -6.17729643e-06,7.72807561 C-6.17729643e-06,8.34613471 0.0813076347,8.96158308 0.241629068,9.55734395 C0.396535072,10.1329465 0.625815724,10.6925209 0.923087819,11.2205311 C1.21146461,11.7327271 1.56466183,12.2167186 1.97289876,12.6591096 C2.18136192,12.8850236 2.40446528,13.1003878 2.64039682,13.3036398 C2.50989114,13.966916 2.35731191,14.7664211 2.33229386,14.8976425 C2.23726645,15.3961643 2.43409571,15.9060063 2.83432274,16.1980447 C3.04673938,16.3529982 3.29525201,16.4311276 3.54427942,16.4311276 C3.76450004,16.4311276 3.98513248,16.3700749 4.18171464,16.2469853 C4.24241687,16.2089798 5.33437756,15.5252672 6.01622754,15.0935332 C6.8338545,15.3216514 7.68401522,15.4370158 8.55141059,15.4370158 C9.42815427,15.4370158 10.2930581,15.3180349 11.1220513,15.083454 C11.2619259,15.0438436 11.4003591,15.0007665 11.5374745,14.9548647 C11.274857,14.5995909 11.0615962,14.2154493 10.9041163,13.8133749" id="Fill-1" fill="#008CCF" mask="url(#mask-2)"></path>
                        </g>
                        <g transform="translate(14.000000, 14.086957)" fill="#FE6701" id="Fill-3">
                            <path d="M1.25131151,2.15773193 C1.25172468,2.0477276 1.12163249,1.620401 0.881459545,1.21939192 C0.596108216,0.742958491 0.137947331,0.32862864 0.274991416,0.192360795 C0.409448747,0.0586851002 0.72700876,0.409849315 1.16941559,0.686237226 C1.59384089,0.951356488 2.10190458,1.15959247 2.25452308,1.16018651 C2.80643584,1.16232863 3.25213001,1.61240854 3.25,2.16549038 C3.24785468,2.71855422 2.79869354,3.16517793 2.24678078,3.16304348 C1.69485005,3.16089368 1.24917385,2.71081377 1.25131151,2.15773193"></path>
                        </g>
                        <g transform="translate(17.111111, 11.739130)" fill="#0088F9" id="Fill-5">
                            <path d="M2.08778797,2.09477835 C1.9730995,2.09521127 1.52871922,2.2349314 1.112617,2.48978934 C0.618285689,2.79258843 0.190042856,3.27595268 0.0469074453,3.13346563 C-0.0935071161,2.99365139 0.270017045,2.65811981 0.554580298,2.19235469 C0.827565871,1.74550627 1.04054265,1.21150924 1.03996096,1.05159247 C1.03778428,0.473287056 1.50338718,0.00272217247 2.07990689,0.000512304659 C2.65644536,-0.00166349224 3.12557598,0.465400388 3.12776026,1.04370581 C3.12992934,1.62203005 2.66432644,2.09261375 2.08778797,2.09477835"></path>
                        </g>
                        <path d="M16.8639124,9.66716111 C16.8639124,9.78343021 17.0014206,10.2345414 17.2537127,10.6574176 C17.5534596,11.1598044 18.0333321,11.5958468 17.8908365,11.7404459 C17.7510409,11.8823053 17.4182013,11.5123979 16.9553158,11.2221342 C16.511236,10.9436287 15.9801401,10.7256266 15.8208451,10.7256266 C15.2447882,10.7256266 14.7777778,10.251741 14.7777778,9.66716111 C14.7777778,9.08258117 15.2447882,8.60869565 15.8208451,8.60869565 C16.3969208,8.60869565 16.8639124,9.08258117 16.8639124,9.66716111" id="Fill-7" fill="#2BC402"></path>
                        <path d="M12.7157267,12.7720124 C12.8313862,12.7716165 13.2795856,12.6317901 13.6992676,12.3766263 C14.1978599,12.0734838 14.629842,11.5894927 14.7741515,11.73226 C14.9157549,11.8723125 14.5490393,12.2082766 14.2619533,12.6746976 C13.9865429,13.1221721 13.7715926,13.6569321 13.7721603,13.8171188 C13.774204,14.3963321 13.3045077,14.8675227 12.7231257,14.8695652 C12.1417059,14.8715759 11.6687358,14.4036845 11.6666667,13.8244523 C11.6646484,13.2452389 12.1343258,12.7740296 12.7157267,12.7720124" id="Fill-9" fill="#F0C906"></path>
                    </g>
                </g>
            </g>
            <g id="微信" transform="translate(24.000000, 0.000000)">
                <rect id="矩形" fill="#D8D8D8" opacity="0" x="0" y="0" width="24" height="24"></rect>
                <g id="微博-copy-3" transform="translate(2.000000, 4.000000)" fill-rule="nonzero">
                    <g id="微信-(2)" transform="translate(0.250000, 0.750000)">
                        <path d="M4.43641968,11.0994826 L2.04924248,12.2777778 L2.73236582,10.2553186 C1.02252283,9.07836389 0,7.56328514 0,5.71819792 C0,2.51728565 3.07601152,0 6.8308508,0 C10.1898886,0 13.1321038,2.01131852 13.7222222,4.72145402 C13.5053741,4.69649178 13.285654,4.68128118 13.0644855,4.68128118 C9.81951902,4.68128118 7.25760178,7.06561582 7.25760178,10.0015575 C7.25760178,10.4923099 7.33501669,10.9608297 7.46739764,11.4113283 C7.25615347,11.4251782 7.04353092,11.4363189 6.8294395,11.4363189 C5.97736526,11.4363189 5.2899628,11.2644585 4.43641968,11.0994826 Z" id="路径" fill="#04BE02"></path>
                        <path d="M17.1185199,14.1454632 L17.6301024,15.8888889 L15.7659089,14.8394714 C15.0860962,15.0150858 14.4020903,15.1906749 13.7250948,15.1906749 C10.4912679,15.1906749 7.94444444,12.9203934 7.94444444,10.1231804 C7.94444444,7.33167041 10.4912884,5.05555556 13.7250948,5.05555556 C16.7806876,5.05555556 19.5,7.33025307 19.5,10.1231804 C19.5,11.699542 18.4837963,13.0931773 17.1185199,14.1454632 L17.1185199,14.1454632 Z" id="路径" fill="#04BE02"></path>
                        <path d="M5.83387175,2.88888889 C5.6367784,2.88888889 5.44077813,2.96907541 5.30269827,3.10825667 C5.16463793,3.24739564 5.08333333,3.44121877 5.08333333,3.63943707 C5.08333333,3.83541712 5.16343423,4.03143945 5.30269827,4.17061746 C5.44187772,4.30756373 5.63677839,4.38888889 5.83387175,4.38888889 C6.02991105,4.38888889 6.22593409,4.30756372 6.36392937,4.1695211 C6.50310557,4.03034309 6.58333333,3.83435979 6.58333333,3.63943707 C6.58333333,3.44121877 6.50310557,3.24741517 6.36392937,3.10825667 C6.22593411,2.96907539 6.02991107,2.88888889 5.83387175,2.88888889 L5.83387175,2.88888889 Z" id="路径" fill="#FFFFFF"></path>
                        <path d="M11.5841703,8.66666667 C11.3879047,8.66666667 11.1930429,8.74774965 11.0538269,8.88588135 C10.914453,9.02384674 10.8333333,9.2188941 10.8333333,9.41666875 C10.8333333,9.61449328 10.9144489,9.80800237 11.0523981,9.94750603 C11.1902351,10.0869556 11.3878797,10.1666667 11.5841454,10.1666667 C11.7803612,10.1666667 11.9750567,10.0855296 12.1144888,9.94750603 C12.2537048,9.80942837 12.3333333,9.61449328 12.3333333,9.41666875 C12.3333333,9.21889826 12.2523258,9.02528108 12.1144888,8.88588135 C11.9764358,8.74636938 11.7788451,8.66666667 11.5841703,8.66666667 L11.5841703,8.66666667 Z" id="路径" fill="#FFFFFF"></path>
                        <path d="M10.1394159,4.38888889 C10.3353853,4.38888889 10.5313938,4.30756372 10.6706553,4.1695211 C10.8086644,4.03034309 10.8888889,3.83435979 10.8888889,3.63834071 C10.8888889,3.44012241 10.8086644,3.24629278 10.6706553,3.10716031 C10.5302584,2.96907541 10.3342695,2.88888889 10.1394159,2.88888889 C9.94233067,2.88888889 9.74747705,2.96907541 9.60824478,3.10825667 C9.46907106,3.24739564 9.38888889,3.44122203 9.38888889,3.63943707 C9.38888889,3.83541712 9.46907106,4.03143945 9.60824478,4.17061746 C9.74747707,4.30756372 9.94230465,4.38888889 10.1394159,4.38888889 L10.1394159,4.38888889 Z" id="路径" fill="#FFFFFF"></path>
                        <path d="M15.1945505,8.66666667 C14.9981561,8.66666667 14.8031087,8.74774965 14.6637132,8.88588135 C14.5241513,9.02384674 14.4444444,9.2188941 14.4444444,9.41666875 C14.4444444,9.61449328 14.5256854,9.80800237 14.6637132,9.94750603 C14.8016786,10.0869556 14.9981311,10.1666667 15.1945505,10.1666667 C15.3909739,10.1666667 15.5858259,10.0855296 15.7253337,9.94750603 C15.8647833,9.80942837 15.9444444,9.61449328 15.9444444,9.41666875 C15.9444444,9.21889826 15.8633615,9.02528108 15.7253337,8.88588135 C15.5873725,8.74636938 15.390949,8.66666667 15.1945505,8.66666667 L15.1945505,8.66666667 Z" id="路径" fill="#FFFFFF"></path>
                    </g>
                </g>
            </g>
            <g id="qq" transform="translate(96.000000, 0.000000)">
                <rect id="矩形备份" fill="#D8D8D8" opacity="0" x="0" y="0" width="24" height="24"></rect>
                <g transform="translate(3.000000, 2.000000)" id="分组">
                    <g transform="translate(0.750000, 0.250000)">
                        <path d="M8.60869565,19.303079 C6.81755379,19.303079 5.17335753,18.802919 4.11521995,18.0555556 C3.57742492,18.1896747 2.88988328,18.4055956 2.45615676,18.6729349 C2.08469897,18.9016206 2.13102346,19.1346211 2.19781692,19.2290078 C2.49149265,19.6425118 7.23856801,19.4929312 8.60869565,19.3643854 L8.60869565,19.303079 Z" id="Fill-1" fill="#F0A81A"></path>
                        <path d="M7.89130435,19.303079 C9.68244055,19.303079 11.3266316,18.802919 12.3851968,18.0555556 C12.9225592,18.1896747 13.6100986,18.4055956 14.0442547,18.6729349 C14.4152804,18.9016206 14.3689561,19.1346211 14.3021628,19.2290078 C14.008488,19.6425118 9.26185858,19.4929312 7.89130435,19.3643854 L7.89130435,19.303079 Z" id="Fill-3" fill="#F0A81A"></path>
                        <g transform="translate(2.152174, 0.000000)">
                            <mask id="mask-4" fill="white">
                                <use xlink:href="#path-3"></use>
                            </mask>
                            <g id="Clip-6"></g>
                            <path d="M6.03324911,9.20168261 C8.77787063,9.18270072 10.9772865,8.64059444 11.7228207,8.43220193 C11.9003574,8.38260411 11.9953236,8.29361377 11.9953236,8.29361377 C11.9959234,8.26810048 12.0065196,7.83764034 12.0065196,7.61557271 C12.0065196,3.87491691 10.2769362,0.115891546 6.02305274,0.11568744 C1.76936921,0.115891546 0.0395858874,3.87491691 0.0395858874,7.61557271 C0.0395858874,7.83764034 0.0501821098,8.26810048 0.0509818247,8.29361377 C0.0509818247,8.29361377 0.127954383,8.37688913 0.270103706,8.41730217 C0.958258375,8.61263188 3.19885959,9.18208841 6.01305631,9.20168261 L6.03324911,9.20168261 Z" id="Fill-5" fill="#060101" mask="url(#mask-4)"></path>
                        </g>
                        <g transform="translate(0.000000, 10.833333)">
                            <mask id="mask-6" fill="white">
                                <use xlink:href="#path-5"></use>
                            </mask>
                            <g id="Clip-8"></g>
                            <path d="M15.7831056,1.80091407 C15.6097537,1.27340296 15.3728463,0.658454815 15.1336981,0.0675807407 C15.1336981,0.0675807407 14.995587,0.0517881481 14.9259204,0.0710474074 C12.7760315,0.661151111 10.1698463,1.03766963 8.1843463,1.01475111 L8.16356852,1.01475111 C6.18886481,1.03728444 3.60060556,0.665388148 1.45764259,0.0808696296 C1.37595741,0.0583362963 1.21421667,0.0675807407 1.21421667,0.0675807407 C0.974661111,0.658454815 0.738161111,1.27340296 0.564605556,1.80091407 C-0.262024074,4.31617333 0.0058462963,5.35675111 0.20955,5.37986222 C0.647309259,5.43012889 1.91292037,3.48667704 1.91292037,3.48667704 C1.91292037,5.46152148 3.79860556,8.49350667 8.11651296,8.52124 L8.23099444,8.52124 C12.5489019,8.49350667 14.434587,5.46152148 14.434587,3.48667704 C14.434587,3.48667704 15.7001981,5.43012889 16.1379574,5.37986222 C16.3416611,5.35675111 16.6095315,4.31617333 15.7831056,1.80091407" id="Fill-7" fill="#060101" mask="url(#mask-6)"></path>
                        </g>
                        <path d="M6.87355234,5.77706726 C6.27980792,5.80185085 5.7724712,5.17520742 5.74078838,4.37812918 C5.70807688,3.58066965 6.16336324,2.91437249 6.75710766,2.8895889 C7.35023489,2.86499596 7.85716013,3.49144874 7.88966589,4.28852698 C7.92217165,5.08598651 7.46709103,5.75228368 6.87355234,5.77706726" id="Fill-9" fill="#FEFEFE"></path>
                        <path d="M10.7592706,4.37831426 C10.7275899,5.17491207 10.2196708,5.80166814 9.62637856,5.77707826 C9.03267485,5.75229776 8.57783114,5.08608351 8.61033467,4.28872322 C8.64242677,3.49174417 9.1497287,2.86517872 9.74281526,2.88957798 C10.336519,2.91473972 10.7913627,3.58095397 10.7592706,4.37831426" id="Fill-11" fill="#FEFEFE"></path>
                        <path d="M12.184458,7.2975135 C12.0328453,6.92039471 10.5074878,6.5 8.61880971,6.5 L8.59858159,6.5 C6.70990351,6.5 5.18434966,6.92039471 5.03293333,7.2975135 C5.02625609,7.31385237 5.02173913,7.33195761 5.02173913,7.35116682 C5.02173913,7.37854547 5.03018388,7.40283298 5.04275281,7.42358776 C5.170406,7.63290193 6.86446207,8.66666667 8.59858159,8.66666667 L8.61880971,8.66666667 C10.3529292,8.66666667 12.0469853,7.63290193 12.1746385,7.42358776 C12.1874038,7.40327457 12.1956522,7.37810388 12.1956522,7.35094602 C12.1956522,7.33195761 12.191528,7.31385237 12.184458,7.2975135" id="Fill-13" fill="#F0A81A"></path>
                        <path d="M7.88726714,4.26387295 C7.92894441,4.66078799 7.64320249,5.0134678 7.24916279,5.05217363 C6.85512309,5.09039864 6.5021292,4.80022514 6.46045192,4.40282928 C6.41940612,4.00567383 6.70451657,3.65275361 7.0979248,3.6145286 C7.49259597,3.57606318 7.84622134,3.8667175 7.88726714,4.26387295" id="Fill-15" fill="#060101"></path>
                        <path d="M9.3406806,4.10101584 C9.3906921,3.99833749 9.7346447,3.45702444 10.4454801,3.65382461 C10.6322819,3.70561413 10.7186654,3.78194737 10.7366538,3.81167005 C10.7637351,3.85625407 10.7708513,3.91907701 10.74377,4.00396679 C10.6894097,4.17194496 10.578317,4.16744152 10.5162473,4.13456644 C10.4763172,4.11340029 9.98094639,3.73736335 9.52511035,4.29826635 C9.49348253,4.3369959 9.43754081,4.35005587 9.38436653,4.30412082 C9.33119225,4.25863611 9.30905277,4.16564015 9.3406806,4.10101584" id="Fill-17" fill="#060101"></path>
                        <path d="M8.25958509,11.3157167 L8.23942044,11.3157167 C6.91574089,11.3324575 5.31095413,11.150582 3.75647917,10.8337467 C3.62371192,11.6311053 3.54305331,12.6334871 3.61233187,13.8291116 C3.78662632,16.8507245 5.52018734,18.7500831 8.19549744,18.7777778 L8.25000189,18.7777778 L8.30450634,18.7777778 C10.9802157,18.7500831 12.7137768,16.8507245 12.8878716,13.8291116 C12.9567508,12.6334871 12.8762919,11.6311053 12.743325,10.8333333 C11.1886504,11.150582 9.58346429,11.3324575 8.25958509,11.3157167" id="Fill-19" fill="#FEFEFE"></path>
                        <path d="M4.30434783,10.8333333 L4.30434783,13.5818569 C4.30434783,13.5818569 5.73793433,13.8361516 7.17391304,13.6601896 L7.17391304,11.1245018 C6.26422064,11.0794127 5.28297939,10.9787265 4.30434783,10.8333333" id="Fill-21" fill="#DC2829"></path>
                        <path d="M14.2086775,7.94444444 C14.2086775,7.94444444 11.6512255,8.86212701 8.26017316,8.88820398 L8.24002632,8.88820398 C4.85435972,8.86212701 2.30009939,7.94761903 2.29152202,7.94444444 L1.43478261,10.3745912 C3.57732929,11.108828 6.23232383,11.5820683 8.24002632,11.554404 L8.26017316,11.554404 C10.2678756,11.5820683 12.9224712,11.1090548 15.0652174,10.3745912 L14.2086775,7.94444444 Z" id="Fill-23" fill="#DC2829"></path>
                    </g>
                </g>
            </g>
            <g id="支付宝" transform="translate(120.000000, 0.000000)">
                <rect id="矩形" fill="#D8D8D8" opacity="0" x="0" y="0" width="24" height="24"></rect>
                <g id="支付宝1" transform="translate(2.000000, 4.000000)" fill="#1982D2" fill-rule="nonzero">
                    <path d="M9.54824607,11.0843426 C6.41861809,15.0585193 2.69279654,13.8166023 2.0966383,13.5681765 C0.606295586,13.1707024 0.109514668,10.4385486 1.9475899,9.59407039 C5.077359,8.60043803 7.80961873,9.74294238 9.7965307,10.7364689 C9.64748232,10.9352236 9.54824607,11.0843426 9.54824607,11.0843426 Z M12.7771103,9.94180291 C14.1682168,7.45786309 14.6649271,5.07330062 14.6649271,5.07330062 L10.045027,5.07330062 L10.045027,3.38441488 L15.5093347,3.38441488 L15.5093347,2.6391377 L10.045027,2.6391377 L10.045027,0.00632587891 L7.56101662,0.00632587891 L7.56101662,2.6391377 L2.59320754,2.6391377 L2.59320754,3.38441488 L7.56101662,3.38441488 L7.56101662,5.12304223 L3.28877842,5.12304223 L3.28877842,5.86814303 L11.8829964,5.86814303 C11.8829964,6.01726197 11.8829964,6.01726197 11.8084546,6.5140076 C11.7339127,7.01075322 11.0882246,8.25270549 10.5914084,9.24633787 C4.23256338,6.76243334 2.39448812,8.25277605 1.89774248,8.50109596 C-1.86251012,11.4944108 0.623228867,14.9323309 3.7320783,15.3933401 C6.84099828,15.8543142 9.64737648,14.2139705 11.6345001,11.8791144 C12.0318684,12.0283039 12.7273687,12.4008367 14.7144571,13.3694571 C16.7015454,14.3381481 19.9803276,15.9029621 19.9803276,15.9029621 L19.9803276,12.1773876 C18.9869069,12.0779044 15.3604628,10.8359874 12.7771103,9.94180291 Z" id="形状"></path>
                </g>
            </g>
            <g id="wps" transform="translate(144.000000, 0.000000)">
                <rect id="矩形" fill="#D8D8D8" opacity="0" x="0" y="0" width="24" height="24"></rect>
                <g id="512" transform="translate(3.000000, 3.000000)" fill-rule="nonzero">
                    <g id="512-b-link" fill="#2C87F8">
                        <path d="M3.38012209,-3.39885101e-15 L14.6198779,-3.39885101e-15 C15.79522,-3.39885101e-15 16.2214274,0.122377515 16.651115,0.352176904 C17.0808024,0.581976293 17.4180237,0.919197558 17.6478231,1.34888506 C17.8776225,1.77857256 18,2.20478 18,3.38012209 L18,14.6198779 C18,15.79522 17.8776225,16.2214274 17.6478231,16.651115 C17.4180237,17.0808024 17.0808024,17.4180237 16.651115,17.6478231 C16.2214274,17.8776225 15.79522,18 14.6198779,18 L3.38012209,18 C2.20478,18 1.77857256,17.8776225 1.34888506,17.6478231 C0.919197558,17.4180237 0.581976293,17.0808024 0.352176904,16.651115 C0.122377515,16.2214274 -2.26590067e-15,15.79522 -2.26590067e-15,14.6198779 L-2.26590067e-15,3.38012209 C-2.26590067e-15,2.20478 0.122377515,1.77857256 0.352176904,1.34888506 C0.581976293,0.919197558 0.919197558,0.581976293 1.34888506,0.352176904 C1.77857256,0.122377515 2.20478,-3.39885101e-15 3.38012209,-3.39885101e-15 Z" id="512-b"></path>
                    </g>
                    <path d="M7.47070313,5.10770089 C7.71978849,5.10770089 7.94570484,5.25382196 8.04785428,5.48099811 L8.61448544,6.74116071 L7.92064169,8.28421875 L7.06140458,6.37332589 L4.54109987,6.37332589 L7.13411803,11.7481742 L8.3061581,9.14160592 L8.30611491,9.14146875 L8.99991848,7.59837054 L8.99999883,7.59853125 L9.95214572,5.48099811 C10.0542952,5.25382196 10.2802115,5.10770089 10.5292969,5.10770089 L14.4667969,5.10770089 C14.9333134,5.10770089 15.2394568,5.59530333 15.0367493,6.0154787 L11.4156555,13.5213381 C11.1820146,14.0056327 10.4890649,13.9962996 10.268552,13.505888 L9.38571312,11.5424598 L10.0794363,9.99924107 L10.865882,11.7481742 L13.4589001,6.37332589 L10.9385954,6.37332589 L9.6938419,9.14160592 L9.69396312,9.14191071 L9.00019973,10.6851295 L8.99999883,10.6846473 L7.73144803,13.505888 C7.51093513,13.9962996 6.81798544,14.0056327 6.58434447,13.5213381 L2.96325072,6.0154787 C2.76054316,5.59530333 3.06668656,5.10770089 3.53320313,5.10770089 L7.47070313,5.10770089 Z" id="路径" fill="#FFFFFF"></path>
                </g>
            </g>
            <g id="百度" transform="translate(168.000000, 0.000000)">
                <rect id="矩形" fill="#D8D8D8" opacity="0" x="0" y="0" width="24" height="24"></rect>
                <g id="icon_百度logo" transform="translate(4.000000, 3.000000)" fill="#3245DF" fill-rule="nonzero">
                    <path d="M2.42326865,9.47036902 C4.31146289,9.05071804 4.05419742,6.7152336 3.99768594,6.20478095 C3.90521264,5.41783311 3.01090883,4.04231048 1.79650513,4.15110888 C0.26832449,4.29303762 0.0450449219,6.57780404 0.0450449219,6.57780404 C-0.161636872,7.63388474 0.539816627,9.89042901 2.42326865,9.47036902 Z M4.42843767,13.5327213 C4.37311175,13.696737 4.24981403,14.1167969 4.35651398,14.4824577 C4.56714762,15.3029449 5.25516481,15.3397564 5.25516483,15.3397564 L6.24391785,15.3397564 L6.24391785,12.8382112 L5.18521707,12.8382112 C4.70941425,12.9850482 4.47981174,13.3682967 4.42843767,13.5327213 Z M5.9277698,5.55403563 C6.9706632,5.55403563 7.81359293,4.3118524 7.81359293,2.77599528 C7.81359293,1.24177423 6.9706632,2.84217094e-14 5.9277698,2.84217094e-14 C4.88645715,2.84217094e-14 4.04155149,1.24177423 4.04155149,2.77599528 C4.04155149,4.3118524 4.88685234,5.55403563 5.9277698,5.55403563 Z M10.4194433,5.73768406 C11.813261,5.92501363 12.7095407,4.38547537 12.8877692,3.21855117 C13.0695543,2.05326304 12.1701131,0.699827309 11.183336,0.467096889 C10.1945829,0.232321395 8.96002481,1.87165969 8.84739706,2.94041992 C8.71303414,4.24681875 9.02799664,5.55239957 10.4194433,5.73768406 Z M13.8346326,12.5968915 C13.8346326,12.5968915 11.6781077,10.8700236 10.4190481,9.00368114 C8.71263896,6.25181785 6.28857376,7.37170513 5.47765401,8.77135975 C4.67029091,10.1706053 3.41202167,11.0557171 3.23339803,11.2900836 C3.05200808,11.520769 0.628338077,12.8750227 1.16658015,15.3483458 C1.70442702,17.8200327 3.594202,17.7729958 3.59420199,17.7729958 C3.59420197,17.7729958 4.98683415,17.9149245 6.60235071,17.5406744 C8.21865763,17.1696964 9.61010425,17.6331122 9.61010425,17.6331122 C9.61010425,17.6331122 13.3853072,18.9415561 14.4183209,16.4228322 C15.4501491,13.9032903 13.8346326,12.5968915 13.8346326,12.5968915 L13.8346326,12.5968915 Z M7.37533269,16.3455281 L4.92083826,16.3455281 C3.86095192,16.1267042 3.43889428,15.378204 3.38554428,15.2505908 C3.33337984,15.1209326 3.03224883,14.5192692 3.19150841,13.4955008 C3.6495279,11.9616888 4.95561454,11.8516633 4.95561454,11.8516633 L6.26209637,11.8516633 L6.26209637,10.1894201 L7.37493752,10.2070078 L7.37493752,16.3455281 L7.37533269,16.3455281 Z M11.9464383,16.3279404 L9.12205068,16.3279404 C8.02738804,16.0359026 7.97640919,15.230958 7.97640919,15.230958 L7.97640919,11.9985003 L9.12205068,11.9792765 L9.12205068,14.884521 C9.19199844,15.1945555 9.56386758,15.2505908 9.5638676,15.2505908 L10.7276876,15.2505908 L10.7276876,11.9985003 L11.9464383,11.9985003 L11.9464383,16.3279404 L11.9464383,16.3279404 Z M15.9445256,7.69728231 C15.9445256,7.13897473 15.4963858,5.45791674 13.8346326,5.45791674 C12.1701131,5.45791674 11.9476239,7.0444919 11.9476239,8.16601526 C11.9476239,9.23641156 12.0349598,10.730549 14.1025681,10.6831031 C16.1709667,10.6356572 15.9445256,8.25845302 15.9445256,7.69728231 Z" id="形状"></path>
                </g>
            </g>
            <g id="有赞" transform="translate(192.000000, 0.000000)" fill-rule="nonzero">
                <polygon id="路径" fill="#6690FF" opacity="0" points="0 0 24 0 24 24 0 24"></polygon>
                <path d="M17.4678,9.1242 C16.5918,9.2304 15.7164,9.342 14.841,9.4422 C14.3178,9.5034 13.995,9.2112 14.025,8.7048 C14.0526,8.2038 14.103,7.7052 14.1378,7.2048 C14.184,6.5652 14.2434,5.9256 14.2674,5.2848 C14.3034,4.3494 13.7646,3.6762 12.8874,3.5226 C12.1512,3.3936 11.6166,3.828 11.4924,4.5846 C11.3063233,5.7521626 11.0902519,6.9147469 10.8444,8.0712 C10.6392,9.0102 10.3182,9.9192 9.843,10.7574 C9.5502,11.2752 9.2106,11.7588 8.6634,12.0186 C8.4756,12.108 8.4294,12.2124 8.4294,12.4074 C8.4354,14.8752 8.433,17.3454 8.433,19.8132 L8.433,20.0748 C8.5578,20.0598 8.643,20.0502 8.7282,20.037 C11.5554,19.5948 14.3808,19.1526 17.208,18.7128 C17.9538,18.597 18.42,17.9994 18.3324,17.2332 C18.297,16.92 18.3342,16.6302 18.4752,16.3494 C18.7092,15.879 18.7422,15.3876 18.666,14.862 C18.618,14.538 18.6108,14.1678 18.7182,13.8684 C18.972,13.1622 19.0206,12.4836 18.8538,11.7438 C18.7698,11.3682 18.876,10.932 18.9576,10.5354 C19.1502,9.6378 18.6756,9.0354 17.7792,9.0918 C17.6749261,9.09977655 17.5708879,9.11058053 17.4672,9.1242 L17.4678,9.1242 Z M7.62,12.303 C7.5012,12.3222 7.431,12.3318 7.3602,12.345 C6.7872,12.4548 6.2118,12.561 5.6388,12.6786 C5.223,12.7644 5.0004,13.0446 5.0004,13.4772 C4.9986,15.5736 4.9986,17.6712 5.0022,19.7676 C5.0022,20.2626 5.3142,20.553 5.7912,20.4918 C6.3162,20.4258 6.8352,20.3232 7.3584,20.2608 C7.5792,20.2338 7.6236,20.1354 7.62242339,19.9248 C7.6164,17.493 7.6182,15.0576 7.62,12.624 L7.62,12.303 L7.62,12.303 Z" id="形状" fill="#EE2200"></path>
            </g>
            <g id="编组-2" transform="translate(216.000000, 0.000000)">
                <rect id="矩形" fill="#D8D8D8" opacity="0" x="0" y="0" width="24" height="24"></rect>
                <path d="M13.509799,12.6327272 C14.0364463,12.8417451 14.5776337,13.0217732 15.0850586,13.2687943 C15.5348159,13.4880437 15.9710189,13.7275129 16.4722827,13.8025449 C16.9666461,13.8761153 17.3740153,14.1109558 17.6709784,14.4887957 C17.796664,14.6486042 17.8452131,14.9002539 17.8503884,15.1119514 C17.856303,15.3465483 17.7121342,15.5253584 17.4642132,15.6157379 C16.8012832,15.8573996 16.1304671,15.8781065 15.4404285,15.7555704 C14.8272799,15.6466765 14.2101882,15.5536173 13.5916178,15.4802905 C13.0681742,15.418657 12.8323289,15.5796836 12.6620372,16.071046 C12.4863238,16.5765378 12.5255081,17.099326 12.5496595,17.6213833 C12.568882,18.0289437 12.5925405,18.4386966 12.5767681,18.8460133 C12.549413,19.5524838 12.066386,19.9990219 11.3556462,19.9999982 C11.1543028,20.0002399 10.9529594,19.9763661 10.751616,19.9646728 C10.4881691,19.9490817 10.4139899,19.8048643 10.4447952,19.5610102 C10.5273534,18.9061851 10.6012861,18.250142 10.6749724,17.5938553 C10.7168676,17.2225929 10.7592557,16.8508432 10.7875965,16.4786064 C10.8228378,16.0133103 10.4800365,15.6829745 10.0199286,15.7738412 C8.81507181,16.011605 7.61588324,16.2795766 6.41151938,16.5205074 C6.10519151,16.5818972 5.7858022,16.6216058 5.47479193,16.6099124 C4.97451392,16.5911544 4.70071645,16.2425478 4.74778694,15.7497237 C4.75789108,15.645702 4.77144541,15.541924 4.78968214,15.4393639 C4.85770024,15.055921 5.04967884,14.8737003 5.44423308,14.8603018 C6.08054728,14.8386204 6.6384928,14.6395906 7.15084649,14.2573657 C7.43450166,14.0459118 7.77533145,13.9055922 8.10088182,13.7547973 C8.23174272,13.6943818 8.33672717,13.6247092 8.27782745,13.4919415 C8.22533522,13.3735468 8.11665414,13.210815 8.01240901,13.1944931 C7.35490077,13.0904714 6.69221724,13.0193371 6.03076592,12.9425998 C5.49278222,12.8804791 5.05436125,12.3023914 5.15417041,11.7759491 C5.20666263,11.500182 5.42057461,11.4141875 5.66085592,11.3510923 C6.83145718,11.0441431 8.00600151,10.750836 9.16871661,10.416846 C9.73306964,10.2546014 10.2693282,10.0151323 10.6939484,9.57468448 C10.9364477,9.32327843 11.5569896,9.30232793 11.8386732,9.48820275 C12.0646609,9.63704877 12.0915231,10.1025885 11.8527205,10.2986949 C11.6747891,10.4448612 11.4564411,10.5518062 11.2415434,10.6431602 C10.6801477,10.8823857 10.1081549,11.097981 9.54700565,11.3379374 C9.4693763,11.3710684 9.42846687,11.4887323 9.37079936,11.5671749 C9.45261822,11.6063961 9.53049401,11.6607213 9.61699528,11.6824026 C9.84594024,11.7396511 10.0768567,11.8105418 10.3102377,11.8239403 C10.5766419,11.8390442 10.8516716,11.8261328 11.1131469,11.7749746 C11.5340705,11.6926343 11.9515439,11.5830095 12.3618704,11.4580373 C12.7251264,11.3474382 12.7689932,11.1532806 12.528219,10.8538833 C12.4624189,10.7722738 12.3870075,10.6987034 12.3204681,10.6178247 C12.1868963,10.4550929 12.2300237,10.319889 12.4133769,10.2465623 C12.5577921,10.1888266 12.7152688,10.151067 12.870281,10.1332834 C13.7384975,10.0326722 14.5941454,10.0494814 15.3906471,10.4694659 C15.6560656,10.6095419 15.9145836,10.7637474 16.169405,10.9223378 C16.4210227,11.0787358 16.4491171,11.3318471 16.2278119,11.5352619 C15.9241949,11.8144395 15.5476309,11.9196793 15.1392759,11.9182176 C14.4990186,11.9160251 13.9997264,12.241976 13.4898371,12.5450274 L13.509799,12.6327272 Z M7.2063946,7.48360493 C7.17041401,6.7388876 7.05803629,6.01828771 6.76698785,5.32156164 C6.56071559,4.82849397 6.73199304,4.34590154 7.10904986,4.161732 C7.33700905,4.05015838 7.56940421,4.02482289 7.7781409,4.19145248 C8.0509526,4.40899667 8.34840854,4.61119339 8.56798869,4.87453635 C8.8792454,5.24823488 9.25309848,5.33763994 9.67402205,5.19390973 C10.3953589,4.9473759 11.0927908,5.01388157 11.7872654,5.26528761 C11.8949607,5.3042653 12.0149781,5.38002816 12.0716599,5.47333099 C12.2064638,5.69526017 12.0987685,5.89843133 11.8390183,5.96444978 C11.2226659,6.12036051 10.6235645,6.32012113 10.1048033,6.69747381 C9.8337167,6.89479833 9.58037395,7.11282973 9.55474394,7.48482299 C9.53897163,7.71430409 9.62005117,7.82514687 9.85121411,7.80370914 C10.4202495,7.75108927 10.9902707,7.69676413 11.4861128,7.36447939 C11.6909064,7.22683945 11.7882511,7.28165182 11.8116632,7.52574955 C11.8385254,7.80906858 11.7483275,8.04951215 11.5538844,8.26364579 C11.0341375,8.83613049 10.3593783,9.14429779 9.63434483,9.34990506 C9.14614249,9.48827583 8.62861351,9.53236934 8.14952955,9.69217783 C7.56053228,9.88877151 7.00431186,10.1779372 6.42270786,10.3986483 C5.31741383,10.8181456 4.20546586,11.2205902 3.09376433,11.623522 C2.88847784,11.6978232 2.67234788,11.7428911 2.460161,11.7974599 C2.25241008,11.850567 2.09444052,11.7709063 2.06166369,11.5674915 C2.01730406,11.295135 1.98526655,11.0135212 2.00695348,10.7406775 C2.0291333,10.4617434 2.20952911,10.2658806 2.45991456,10.109239 C2.95501728,9.80009729 3.44642336,9.47926224 3.90529906,9.12091118 C4.2010299,8.8894812 4.27225174,8.56718449 4.20374077,8.16352187 C4.08544843,7.46387248 4.04330678,6.74911924 4.0056011,6.03875099 C3.98120331,5.57735268 4.36220321,5.23166936 4.78337322,5.29598254 C4.90092623,5.31400972 5.03868751,5.38416954 5.1118809,5.47406182 C5.6964422,6.19173839 6.04984056,6.9985764 6.03061805,7.93866937 C6.02840007,8.04293467 6.03234315,8.14768719 6.03998286,8.25170888 C6.06807729,8.63539543 6.19819886,8.76962482 6.56170136,8.7969092 C6.85176403,8.81834693 7.11940044,8.60957272 7.16326718,8.28946851 C7.19949421,8.02368944 7.1935796,7.75255094 7.2063946,7.48360493 Z M16.8857637,6.78916881 C16.4148123,6.82400511 15.967273,6.76237165 15.528852,6.55822604 C14.9381296,6.283677 14.273721,6.79038686 14.3301563,7.44204498 C14.3493788,7.66421777 14.5021731,7.80210132 14.7651271,7.80210132 C15.6013061,7.80234493 16.4054475,7.96702563 17.194556,8.22915054 C17.5509116,8.34730164 17.908746,8.48201825 18.2771773,8.53707423 C18.5825194,8.58262939 18.9046196,8.5270862 19.2188336,8.50759736 C19.7430165,8.47470994 20.2676923,8.4437714 20.7903966,8.39334403 C20.9860718,8.37458602 21.1780504,8.30856757 21.3680575,8.25326798 C21.4331183,8.23426636 21.4861034,8.15436212 21.547714,8.14997713 C21.6812858,8.14047632 21.8737573,8.11294833 21.9375858,8.1840826 C22.0097934,8.2652049 22.0191583,8.46959412 21.966666,8.57873163 C21.8005639,8.92270967 21.601192,9.25207108 21.3986164,9.57753472 C21.1785433,9.93174441 20.9668493,10.2961857 20.7038953,10.6184824 C20.3364498,11.0686747 19.813499,11.2723331 19.2516104,11.3953564 C18.6115996,11.5351888 18.0418248,11.3373771 17.5166562,11.0231195 C16.9924732,10.7093492 16.4835697,10.3619606 16.007936,9.98046651 C15.7161482,9.74635681 15.4145027,9.57388057 15.0539576,9.52223514 C14.4289797,9.43258647 13.8000588,9.36924774 13.1723701,9.29713903 C13.1119917,9.29007432 13.0484096,9.28983071 12.9885241,9.30030596 C12.6417796,9.36023415 12.5646432,9.30469095 12.5047577,8.96436707 C12.4024841,8.38433044 12.4537441,7.83060375 12.7024045,7.28442898 C13.0346088,6.55530272 13.1129775,5.81253427 12.8142893,5.03273702 C12.7290202,4.81032062 12.8061567,4.5016661 12.879843,4.25318338 C12.9412071,4.04684528 13.1652232,3.97254407 13.3825854,4.00884204 C13.5449909,4.03563919 13.7211972,4.07193716 13.8555083,4.15817528 C14.6194797,4.65002491 15.4847388,4.79838371 16.3623201,4.87658268 C17.1235806,4.94455001 17.8897699,4.95770498 18.6539877,4.98937435 C19.0729397,5.00667069 19.2079901,5.1923019 19.0739255,5.58548927 C18.804564,6.37478733 18.3052717,6.73289478 17.3870275,6.78770714 C17.2206789,6.79769518 17.0528516,6.78916881 16.8857637,6.78916881 Z M19.149953,17.6081796 C18.5286717,17.5299806 17.9386887,17.5523928 17.4591119,18.0525252 C17.6434508,18.034498 17.8277896,18.0164708 18.0256829,17.9972256 C17.6865782,18.25594 17.3541274,18.5185521 17.0123118,18.7682529 C16.7148559,18.9853098 16.3806801,19.0678938 16.0144667,18.9760526 C15.8449143,18.9334208 15.7451052,18.9619232 15.6371634,19.1348867 C15.2771111,19.7124872 14.4303351,19.7046917 13.9694879,19.1526702 C13.8622855,19.0245311 13.7205811,18.910765 13.5719764,18.8332969 C12.8693692,18.4683683 12.8193414,17.7377804 13.470935,17.302692 C13.5337778,17.2605474 13.5783839,17.1711423 13.601303,17.0948923 C13.7158987,16.7163215 13.9295642,16.4030384 14.229731,16.148709 C14.7309948,15.7238523 15.679798,15.8761089 16.0563619,16.4934179 C16.3153728,16.9182746 16.6783824,17.0315535 17.1155712,17.0347205 C17.6301429,17.0386182 18.1282029,17.0980592 18.5991543,17.3385028 C17.8053634,17.0829553 17.0776191,17.372121 16.3365669,17.5745614 C16.1367021,17.6293737 15.9193399,17.6517859 15.7118355,17.6430159 C15.4089578,17.6301045 15.1972638,17.398431 15.2549313,17.1543332 C15.2748931,17.0693132 15.382342,16.9738178 15.4695826,16.9470207 C15.5240464,16.9304552 15.6159694,17.0344768 15.6908879,17.084417 C15.6435709,17.1389858 15.60069,17.1981831 15.5474584,17.246418 C15.5188711,17.2722407 15.472047,17.278331 15.4027967,17.305859 C15.5590412,17.455923 15.7246505,17.4632313 15.8308671,17.3392336 C15.9011032,17.2573805 15.9343729,17.0483626 15.8786769,16.9779592 C15.782318,16.8566412 15.596254,16.7219246 15.4619429,16.7350795 C15.3150632,16.7494525 15.1260419,16.8968369 15.0580239,17.0354513 C14.858652,17.4408192 15.1777948,17.9083078 15.670926,17.9270658 C15.9173684,17.9360794 16.1825404,17.8854084 16.4134569,17.7960033 C17.3090285,17.4491019 18.217415,17.3638383 19.149953,17.6081796 Z M6.55923694,19.441909 C6.12894856,19.4587181 5.66686911,19.3325279 5.23386987,19.1049957 C4.82354333,18.8894004 4.70993339,18.5225229 4.74271023,18.0923068 C4.76760091,17.7665995 4.95169336,17.5514914 5.29720556,17.4416231 C5.33860788,17.4282245 5.38617126,17.4055687 5.42436982,17.4145823 C6.05304431,17.5639156 6.58708492,17.1529446 7.18741854,17.1254167 C7.49300707,17.1115309 7.79489898,17.013843 8.09974819,17.0055603 C8.51549647,16.993867 8.93296984,17.0240747 9.34871812,17.0508718 C9.53552144,17.0625651 9.64568117,17.3185998 9.52221355,17.5312718 C9.35315408,17.8226299 9.15797172,18.105949 8.93420205,18.3580858 C8.31144218,19.0594405 7.48881755,19.4324082 6.55923694,19.441909 Z" id="形状结合" fill="#5D4390"></path>
            </g>
            <g id="新浪" transform="translate(48.000000, 0.000000)">
                <rect id="矩形备份-2" fill="#D8D8D8" opacity="0" x="0" y="0" width="24" height="24"></rect>
                <g id="微博" transform="translate(3.000000, 4.000000)">
                    <g id="分组" transform="translate(0.000000, 0.500000)">
                        <g transform="translate(0.000000, 2.500000)">
                            <mask id="mask-9" fill="white">
                                <use xlink:href="#path-8"></use>
                            </mask>
                            <g id="Clip-2"></g>
                            <path d="M13.3996102,4.95455616 C13.1484558,4.87883152 12.9766417,4.82647645 13.108066,4.49423007 C13.3930435,3.77348732 13.4223688,3.15038949 13.1133733,2.70673007 C12.5337931,1.87348732 10.9495952,1.91841486 9.13331334,2.68345109 C9.13331334,2.68254529 8.56398801,2.9351721 8.70908546,2.47946558 C8.98875562,1.57529891 8.9462069,0.817509058 8.51154423,0.380733696 C7.52635682,-0.613197464 4.90632684,0.417780797 2.65934033,2.67991848 C0.976821589,4.37493659 0,6.16995471 0,7.72294384 C0,10.6943207 3.78188906,12.5000272 7.4829985,12.5000272 C12.3350825,12.5000272 15.5628486,9.66189312 15.5628486,7.40799819 C15.5628486,6.04640399 14.4237481,5.27375906 13.3996102,4.95455616" id="Fill-1" fill="#E50113" mask="url(#mask-9)"></path>
                        </g>
                        <path d="M7.39759379,14.1244133 C4.37875236,14.4323736 1.77217724,13.0239851 1.5769416,10.9743059 C1.38078634,8.92700207 3.66935635,7.01700238 6.68874956,6.70904213 C9.70795883,6.40041673 12.3136143,7.81080057 12.5100455,9.85772427 C12.7059249,11.9067384 10.4176307,13.8176883 7.39759379,14.1244133" id="Fill-3" fill="#FEFEFE"></path>
                        <g transform="translate(11.739130, 0.000000)">
                            <mask id="mask-11" fill="white">
                                <use xlink:href="#path-10"></use>
                            </mask>
                            <g id="Clip-6"></g>
                            <path d="M5.0076463,1.76856 C3.85837991,0.32386 2.16459424,-0.22654 0.600964115,0.15076 L0.59920049,0.15076 C0.237657318,0.23796 0.00706331904,0.64196 0.0847510104,1.05096 C0.161380527,1.46136 0.517368279,1.72396 0.879175995,1.63576 C1.99202352,1.36716 3.19578592,1.76016 4.0127853,2.78596 C4.82890288,3.81126 5.05014966,5.20996 4.70068732,6.43666 L4.70068732,6.43756 C4.58622805,6.83706 4.7798741,7.26396 5.13145279,7.39276 C5.48356056,7.52326 5.86159363,7.30396 5.97455383,6.90516 C5.97455383,6.90486 5.97455383,6.90396 5.97543564,6.90326 C6.46519437,5.17696 6.15567814,3.21056 5.0076463,1.76856" id="Fill-5" fill="#F29700" mask="url(#mask-11)"></path>
                        </g>
                        <path d="M15.081534,3.24007194 C14.5312126,2.62248336 13.7202127,2.38844056 12.9704366,2.54918038 C12.6639702,2.61519696 12.4694586,2.92078699 12.5341513,3.2308542 C12.6010119,3.53978017 12.9017549,3.73818105 13.2074408,3.67102323 L13.2074408,3.67216448 C13.5730498,3.59385758 13.9707451,3.70657737 14.2388815,4.0099727 C14.5081453,4.31082218 14.5813364,4.72219674 14.4654793,5.08326879 L14.4659129,5.08326879 C14.3701747,5.38420605 14.5326869,5.70726589 14.8302212,5.80585181 C15.1286227,5.90215525 15.4483571,5.73737717 15.5441821,5.43626433 C15.779712,4.69814283 15.6319421,3.85739716 15.081534,3.24007194" id="Fill-7" fill="#F29700"></path>
                        <path d="M7.64035472,8.43136085 C6.27897093,8.061298 4.74019338,8.77082042 4.14981024,10.023551 C3.5472291,11.303606 4.1292479,12.7221954 5.50483365,13.1859808 C6.92964703,13.6669805 8.6081788,12.9310445 9.19220155,11.5512557 C9.76751145,10.2012504 9.04922358,8.81235344 7.64035472,8.43136085" id="Fill-9" fill="#231916"></path>
                        <path d="M7.77778907,10.5705991 C7.66786383,10.7868445 7.42499684,10.8915043 7.23561217,10.8003668 C7.0487106,10.7110982 6.98959355,10.4714362 7.09636716,10.2589287 C7.20533736,10.0481801 7.43798541,9.94505947 7.62460046,10.0294908 C7.81341211,10.1088651 7.88112453,10.3535841 7.77778907,10.5705991" id="Fill-11" fill="#FEFEFE"></path>
                        <path d="M6.9295234,12.0058089 C6.70062211,12.4317471 6.20980006,12.6178431 5.84096258,12.4222576 C5.47702755,12.2288554 5.36953406,11.7347268 5.59843535,11.3202936 C5.82495751,10.9060285 6.29854888,10.7224518 6.66493513,10.9021654 C7.03586337,11.0858261 7.15460366,11.5765956 6.9295234,12.0058089" id="Fill-13" fill="#FEFEFE"></path>
                    </g>
                </g>
            </g>
            <g id="钉钉" transform="translate(72.000000, 0.000000)">
                <rect id="矩形备份-3" fill="#D8D8D8" opacity="0" x="0" y="0" width="24" height="24"></rect>
                <g transform="translate(5.000000, 3.000000)" fill="#1890FF" id="分组">
                    <g transform="translate(0.250000, 0.750000)">
                        <path d="M8.69457567,16.5 L8.65394022,16.5 C8.65901965,16.491787 8.66635661,16.4838477 8.66889632,16.4748133 C8.7930602,15.994898 8.91694189,15.5147088 9.03997701,15.0345197 C9.10516304,14.7799154 9.16780936,14.5244898 9.23355978,14.2701593 C9.31454849,13.958885 9.39835911,13.6481583 9.47991221,13.336884 C9.51857232,13.1890493 9.55412834,13.0403932 9.59391722,12.8807865 L7.86239548,12.8807865 C8.06331522,12.065779 8.26084866,11.2644599 8.46261497,10.446441 C8.40589465,10.4560229 8.37316054,10.4593081 8.34211957,10.4672474 C8.10677258,10.5277501 7.8708612,10.5860627 7.63692517,10.6514933 C7.31889632,10.7404679 6.99691681,10.8206819 6.68735368,10.9323793 C6.42378763,11.027103 6.16473662,11.0268293 5.90060619,10.972897 C5.394074,10.8691389 4.96288671,10.6153559 4.55568562,10.3180438 C4.42108069,10.2200348 4.29070861,10.1162768 4.16090092,10.0122449 C3.86431856,9.77461424 3.60921823,9.50194126 3.41902174,9.17560976 C3.2996551,8.97055749 3.33633988,8.71403683 3.63630853,8.66996018 C3.87588838,8.6346441 4.11490385,8.59275759 4.3544837,8.5557989 C4.65981396,8.5087108 4.96542642,8.46189647 5.27160326,8.41864111 C5.52896112,8.38250373 5.78716555,8.35293678 6.04452341,8.31789447 C6.31824833,8.28066202 6.59084448,8.23768044 6.86485159,8.20181682 C7.14817099,8.16458437 7.43233696,8.13282728 7.71622074,8.09860627 C7.71565635,8.09039323 7.71509197,8.08218019 7.71452759,8.07396715 C7.53561873,8.08300149 7.35614548,8.10079642 7.17667224,8.09997511 C6.22117475,8.0966899 5.26567726,8.09258337 4.31017977,8.07944251 C4.01218645,8.07533599 3.71447533,8.04138875 3.41648202,8.02304629 C3.1791597,8.00826282 2.97626463,7.91134893 2.79114758,7.77583375 C2.53491848,7.58857641 2.3232755,7.35696864 2.13025711,7.11167247 C1.88080059,6.79519662 1.6663357,6.45572424 1.47501045,6.103111 C1.39007107,5.94678945 1.30146321,5.79238427 1.22414298,5.6327775 C1.14597617,5.47043305 1.0666806,5.30671976 1.01108905,5.13643604 C0.946185201,4.93740667 1.05313545,4.80654555 1.26957567,4.79970134 C1.51056647,4.79203584 1.72531355,4.88429567 1.9496551,4.93987058 C2.30577968,5.02829766 2.65908236,5.12740169 3.01520694,5.21637631 C3.34903846,5.29932802 3.68428094,5.37625684 4.01952341,5.4537332 C4.28393604,5.51478347 4.54863085,5.57555998 4.81417224,5.63140866 C5.16747492,5.7055998 5.52162416,5.77595819 5.8760556,5.84549527 C6.06455895,5.88245396 6.25447324,5.91530612 6.44382316,5.94815829 C6.70880017,5.99387755 6.97405936,6.03850174 7.23960075,6.08175709 C7.3496551,6.09982578 7.4611204,6.11351419 7.57173913,6.1288452 C7.52038043,6.09736187 7.46761079,6.07956695 7.41371237,6.06669985 C7.07621237,5.98484321 6.73730142,5.90846192 6.40121237,5.82167745 C6.08600543,5.74036834 5.77305602,5.65029866 5.4603888,5.56105027 C5.01622074,5.43484321 4.57092391,5.31219512 4.13014214,5.17558487 C3.75906145,5.06032852 3.39193144,4.93193131 3.02649457,4.80052265 C2.49428303,4.60943255 1.97251254,4.39671478 1.48432274,4.11117471 C1.24304975,3.97018417 1.03930811,3.796889 0.890311455,3.56363863 C0.68374791,3.2400448 0.527414298,2.89537083 0.399299749,2.53591339 C0.226034699,2.04997511 0.0883256689,1.5574664 0.0400710702,1.04360378 C0.0321697324,0.958735689 0.0135451505,0.8746889 0,0.790368342 L0,0.375609756 C0.00705476589,0.36246889 0.0194711538,0.349601792 0.0197533445,0.336460926 C0.023986204,0.194649079 0.0784489967,0.0793927327 0.203741639,0 L0.366565635,0 C0.557890886,0.0854156297 0.747805184,0.173295172 0.940259197,0.255973121 C1.41970109,0.46184669 1.90027174,0.664982578 2.38027801,0.869487307 C2.89019649,1.08658537 3.39813963,1.30806371 3.91059783,1.51968641 C4.45776547,1.74581882 5.0083194,1.96373818 5.55859114,2.18302638 C5.87351589,2.30895968 6.19013378,2.43160777 6.50675167,2.55343454 C6.71641931,2.63419612 6.92749791,2.71085117 7.13801212,2.78969637 C7.55113921,2.94437531 7.96116221,3.10699353 8.37795778,3.25236436 C8.77782191,3.39225983 9.18502299,3.5116227 9.58742684,3.64494774 C10.0070443,3.7840219 10.4263796,3.92501244 10.842893,4.07229965 C11.094607,4.16127427 11.3415238,4.26256844 11.5898516,4.36002987 C11.7952864,4.44106521 12.0029787,4.51826779 12.2041806,4.60888502 C12.3582567,4.67814833 12.5092287,4.75754107 12.6520171,4.84678945 C12.9042956,5.00420607 13.1441576,5.17558487 13.3208089,5.42005973 C13.4119565,5.54681434 13.4469482,5.69054256 13.5,5.82934296 L13.5,6.08613738 C13.457107,6.2161772 13.4269126,6.35169238 13.368217,6.47461424 C13.2367161,6.74920358 13.0961852,7.02023395 12.9500105,7.28825286 C12.783518,7.59350423 12.6094064,7.89519662 12.434166,8.1960677 C12.3263691,8.38140866 12.2089778,8.56127427 12.0989235,8.74552016 C11.9651651,8.96973619 11.8359218,9.1966899 11.7018813,9.42145346 C11.5692517,9.64430065 11.4352111,9.86687407 11.2980665,10.0872573 C11.1245192,10.3651319 10.9470213,10.6405426 10.7717809,10.9170483 C10.7218332,10.996441 10.6730142,11.0763813 10.6148829,11.1697362 L12.7936768,11.1697362 C12.7911371,11.1839721 12.7922659,11.1990294 12.7854933,11.2080637 C12.560023,11.5029119 12.3353992,11.7980338 12.107107,12.0906919 C11.853982,12.4145595 11.5957776,12.7348681 11.3429348,13.0584619 C11.1959135,13.2462668 11.0570757,13.4398208 10.9103365,13.6273519 C10.6577759,13.9490294 10.3990071,14.265779 10.1478574,14.5885515 C9.96584448,14.822897 9.79540134,15.0657292 9.61338838,15.3000747 C9.35885242,15.6269537 9.0975439,15.9480836 8.84187918,16.2738676 C8.78628763,16.3444998 8.74339465,16.42444 8.69457567,16.5" id="Fill-3"></path>
                    </g>
                </g>
            </g>
            <g id="编组" transform="translate(240.000000, 0.000000)">
                <rect id="矩形" fill="#D8D8D8" opacity="0" x="0" y="0" width="24" height="24"></rect>
                <path d="M17.096,8.31821356 L17.096,8.32151442 L16.3935144,9.024 L16.3902136,9.024 L15.944,9.47021356 L15.944,9.47351442 L10.8135144,14.604 L10.8102136,14.604 L10.2709145,15.143299 L10.2746592,15.1428552 L9.9097625,15.5077519 C9.90962339,15.5067906 9.90948421,15.5058295 9.90934496,15.5048686 L8.76773976,16.6464738 C8.76653629,16.6487796 8.76533186,16.6510843 8.76412646,16.653388 L7.80969306,17.6078214 L7.80733052,17.606883 L7.09435615,18.3198574 C8.44903985,19.3729184 10.1512885,20 12,20 C16.418278,20 20,16.418278 20,12 C20,10.1512885 19.3729184,8.44903985 18.3198574,7.09435615 L17.096,8.31821356 Z M5.68014258,16.9056439 L16.9056439,5.68014258 C15.5509601,4.62708161 13.8487115,4 12,4 C7.581722,4 4,7.581722 4,12 C4,13.8487115 4.62708161,15.5509601 5.68014258,16.9056439 Z M12,22 C6.4771525,22 2,17.5228475 2,12 C2,6.4771525 6.4771525,2 12,2 C17.5228475,2 22,6.4771525 22,12 C22,17.5228475 17.5228475,22 12,22 Z M6.61351442,14.604 L6.584,14.604 L6.584,13.056 L8.12,13.056 L8.12,11.82 L6.908,11.82 L6.908,10.272 L8.12,10.272 L8.12,9.768 C7.952,9.924 7.796,10.068 7.628,10.188 C7.304,9.864 6.608,9.312 6.2,9.048 C7.208,8.424 8.156,7.368 8.66,6.3 L10.376,6.804 C10.256,7.044 10.136,7.272 9.992,7.5 L13.7175144,7.5 L12.1935144,9.024 L11.684,9.024 L11.684,9.53351442 L6.61351442,14.604 Z M14.348,12.483728 L16.559728,10.272 L17.012,10.272 L17.012,11.82 L15.944,11.82 L15.944,13.056 L17.396,13.056 L17.396,14.604 L12.227728,14.604 L13.775728,13.056 L14.348,13.056 L14.348,12.483728 Z M11.5385857,15.2931423 C11.6704336,15.9847908 11.7815234,16.7921685 11.792,17.316 L10.076,17.568 C10.076,17.3508696 10.0649994,17.0803074 10.0447042,16.7870238 L11.5385857,15.2931423 Z M9.656,9.024 L9.656,10.272 L10.244,10.272 L10.244,9.024 L9.656,9.024 Z M12.212,15.24 L13.856,14.964 C14.144,15.684 14.432,16.632 14.528,17.244 L12.776,17.58 C12.716,16.98 12.464,15.996 12.212,15.24 Z M14.564,15.18 L16.244,14.664 C16.76,15.408 17.42,16.428 17.72,17.112 L15.92,17.7 C15.68,17.04 15.068,15.972 14.564,15.18 Z" id="形状结合备份-2" fill="#0773FC" fill-rule="nonzero"></path>
            </g>
        </g>
    </g>
</svg>