<?xml version="1.0" encoding="UTF-8"?>
<svg width="16px" height="88px" viewBox="0 0 16 88" version="1.1" xmlns="http://www.w3.org/2000/svg" xmlns:xlink="http://www.w3.org/1999/xlink">
    <!-- Generator: Sketch 43.2 (39069) - http://www.bohemiancoding.com/sketch -->
    <title>16pxWancheng</title>
    <desc>Created with Sketch.</desc>
    <defs></defs>
    <g id="Symbols" stroke="none" stroke-width="1" fill="none" fill-rule="evenodd">
        <g id="16pxWancheng"></g>
        <g id="16px完成1" fill="#828282">
            <path d="M5.9855862,12.5279538 C5.7867724,12.5279538 5.59609545,12.4489593 5.45550458,12.3083841 L0.983615432,7.83649493 C0.690860949,7.54374045 0.690860949,7.06908618 0.983615432,6.7763317 C1.27636991,6.48357722 1.75102418,6.48357722 2.04377866,6.7763317 L5.9855862,10.7181392 L13.9562077,2.74750214 C14.2489778,2.45476327 14.723632,2.45477889 15.0163709,2.74750214 C15.309141,3.04025662 15.309141,3.51491089 15.0163865,3.80768099 L6.51566781,12.3083841 C6.37507694,12.4489593 6.18439999,12.5279538 5.9855862,12.5279538" id="Fill-1"></path>
        </g>
        <g id="16px完成2" transform="translate(0.000000, 24.000000)" fill="#07aefc">
            <path d="M5.77288269,13.0559077 C5.553076,13.0559077 5.34226532,12.9685721 5.18682935,12.8131534 L0.24274999,7.86907402 C-0.0809166634,7.54540737 -0.0809166634,7.02063399 0.24274999,6.69696734 C0.566416644,6.37330068 1.09119002,6.37330068 1.41485667,6.69696734 L5.77288269,11.0549934 L14.5851282,2.24273057 C14.9088121,1.91908118 15.4335855,1.91909845 15.7572349,2.24273057 C16.0809188,2.56639722 16.0809188,3.0911706 15.7572522,3.41485452 L6.35893603,12.8131534 C6.20350007,12.9685721 5.99268939,13.0559077 5.77288269,13.0559077" id="Fill-1"></path>
        </g>
        <g id="16px完成3" transform="translate(0.000000, 48.000000)" fill="#BDBDBD">
            <path d="M5.77288269,13.0559077 C5.553076,13.0559077 5.34226532,12.9685721 5.18682935,12.8131534 L0.24274999,7.86907402 C-0.0809166634,7.54540737 -0.0809166634,7.02063399 0.24274999,6.69696734 C0.566416644,6.37330068 1.09119002,6.37330068 1.41485667,6.69696734 L5.77288269,11.0549934 L14.5851282,2.24273057 C14.9088121,1.91908118 15.4335855,1.91909845 15.7572349,2.24273057 C16.0809188,2.56639722 16.0809188,3.0911706 15.7572522,3.41485452 L6.35893603,12.8131534 C6.20350007,12.9685721 5.99268939,13.0559077 5.77288269,13.0559077" id="Fill-1"></path>
        </g>
        <g id="16px完成4" transform="translate(0.000000, 72.000000)" fill="#FFFFFF">
            <path d="M5.77288269,13.0559077 C5.553076,13.0559077 5.34226532,12.9685721 5.18682935,12.8131534 L0.24274999,7.86907402 C-0.0809166634,7.54540737 -0.0809166634,7.02063399 0.24274999,6.69696734 C0.566416644,6.37330068 1.09119002,6.37330068 1.41485667,6.69696734 L5.77288269,11.0549934 L14.5851282,2.24273057 C14.9088121,1.91908118 15.4335855,1.91909845 15.7572349,2.24273057 C16.0809188,2.56639722 16.0809188,3.0911706 15.7572522,3.41485452 L6.35893603,12.8131534 C6.20350007,12.9685721 5.99268939,13.0559077 5.77288269,13.0559077" id="Fill-1"></path>
        </g>
    </g>
</svg>