<?xml version="1.0" encoding="UTF-8"?>
<svg width="12px" height="72px" viewBox="0 0 12 72" version="1.1" xmlns="http://www.w3.org/2000/svg" xmlns:xlink="http://www.w3.org/1999/xlink">
    <!-- Generator: Sketch 43.2 (39069) - http://www.bohemiancoding.com/sketch -->
    <title>12px向下展开</title>
    <desc>Created with Sketch.</desc>
    <defs></defs>
    <g id="Symbols" stroke="none" stroke-width="1" fill="none" fill-rule="evenodd">
        <g id="12px向下展开"></g>
        <g id="12px放下2" transform="translate(0.000000, 20.000000)" fill="#6D7DFA">
            <g id="小下放4" transform="translate(6.000000, 6.000000) scale(1, -1) translate(-6.000000, -6.000000) ">
                <path d="M10.8758402,9.00584766 C10.7316762,9.00584766 10.5875121,8.95076953 10.4776488,8.84064844 L5.99956289,4.35256641 L1.52191055,8.83021875 C1.30224258,9.049875 0.946086328,9.049875 0.726418359,8.83021875 C0.506750391,8.61055078 0.506750391,8.25438281 0.726418359,8.03471484 L5.60225039,3.15888281 C5.70774258,3.05340234 5.85082852,2.99412891 5.99999648,2.99412891 L6.00031289,2.99412891 C6.14960977,2.99421094 6.29274258,3.05363672 6.39818789,3.15932812 L11.2740316,8.04604687 C11.4934535,8.26596094 11.4930551,8.62211719 11.273141,8.84153906 C11.163348,8.95108594 11.0195824,9.00584766 10.8758402,9.00584766" id="Fill-1"></path>
                <path d="M0,12 L12,12 L12,0 L0,0 L0,12 Z M0.01171875,11.9882812 L11.9882812,11.9882812 L11.9882812,0.01171875 L0.01171875,0.01171875 L0.01171875,11.9882812 Z" id="Fill-3"></path>
            </g>
        </g>
        <g id="12px放下3" transform="translate(0.000000, 40.000000)" fill="#9B9B9B">
            <g id="小下放1" transform="translate(6.000000, 6.000000) scale(1, -1) translate(-6.000000, -6.000000) ">
                <path d="M10.8758402,9.00584766 C10.7316762,9.00584766 10.5875121,8.95076953 10.4776488,8.84064844 L5.99956289,4.35256641 L1.52191055,8.83021875 C1.30224258,9.049875 0.946086328,9.049875 0.726418359,8.83021875 C0.506750391,8.61055078 0.506750391,8.25438281 0.726418359,8.03471484 L5.60225039,3.15888281 C5.70774258,3.05340234 5.85082852,2.99412891 5.99999648,2.99412891 L6.00031289,2.99412891 C6.14960977,2.99421094 6.29274258,3.05363672 6.39818789,3.15932812 L11.2740316,8.04604687 C11.4934535,8.26596094 11.4930551,8.62211719 11.273141,8.84153906 C11.163348,8.95108594 11.0195824,9.00584766 10.8758402,9.00584766" id="Fill-1"></path>
                <path d="M0,12 L12,12 L12,0 L0,0 L0,12 Z M0.01171875,11.9882812 L11.9882812,11.9882812 L11.9882812,0.01171875 L0.01171875,0.01171875 L0.01171875,11.9882812 Z" id="Fill-3"></path>
            </g>
        </g>
        <g id="12px放下4" transform="translate(0.000000, 60.000000)" fill="#FFFFFF">
            <g id="小下放1" transform="translate(6.000000, 6.000000) scale(1, -1) translate(-6.000000, -6.000000) ">
                <path d="M10.8758402,9.00584766 C10.7316762,9.00584766 10.5875121,8.95076953 10.4776488,8.84064844 L5.99956289,4.35256641 L1.52191055,8.83021875 C1.30224258,9.049875 0.946086328,9.049875 0.726418359,8.83021875 C0.506750391,8.61055078 0.506750391,8.25438281 0.726418359,8.03471484 L5.60225039,3.15888281 C5.70774258,3.05340234 5.85082852,2.99412891 5.99999648,2.99412891 L6.00031289,2.99412891 C6.14960977,2.99421094 6.29274258,3.05363672 6.39818789,3.15932812 L11.2740316,8.04604687 C11.4934535,8.26596094 11.4930551,8.62211719 11.273141,8.84153906 C11.163348,8.95108594 11.0195824,9.00584766 10.8758402,9.00584766" id="Fill-1"></path>
                <path d="M0,12 L12,12 L12,0 L0,0 L0,12 Z M0.01171875,11.9882812 L11.9882812,11.9882812 L11.9882812,0.01171875 L0.01171875,0.01171875 L0.01171875,11.9882812 Z" id="Fill-3"></path>
            </g>
        </g>
        <g id="12px放下1" fill="#828282">
            <g id="小下放5" transform="translate(6.000000, 6.000000) scale(1, -1) translate(-6.000000, -6.000000) translate(0.000000, -0.000000)">
                <path d="M10.8758402,9.00584766 C10.7316762,9.00584766 10.5875121,8.95076953 10.4776488,8.84064844 L5.99956289,4.35256641 L1.52191055,8.83021875 C1.30224258,9.049875 0.946086328,9.049875 0.726418359,8.83021875 C0.506750391,8.61055078 0.506750391,8.25438281 0.726418359,8.03471484 L5.60225039,3.15888281 C5.70774258,3.05340234 5.85082852,2.99412891 5.99999648,2.99412891 L6.00031289,2.99412891 C6.14960977,2.99421094 6.29274258,3.05363672 6.39818789,3.15932812 L11.2740316,8.04604687 C11.4934535,8.26596094 11.4930551,8.62211719 11.273141,8.84153906 C11.163348,8.95108594 11.0195824,9.00584766 10.8758402,9.00584766" id="Fill-1"></path>
                <path d="M0,12 L12,12 L12,-1.77635684e-15 L0,-1.77635684e-15 L0,12 Z M0.01171875,11.9882812 L11.9882812,11.9882812 L11.9882812,0.01171875 L0.01171875,0.01171875 L0.01171875,11.9882812 Z" id="Fill-3"></path>
            </g>
        </g>
    </g>
</svg>